<svg xmlns="http://www.w3.org/2000/svg" xmlns:xlink="http://www.w3.org/1999/xlink" version="1.1" x="0px" y="0px" viewBox="0 0 100 125" enable-background="new 0 0 100 100" xml:space="preserve"><path d="M34.943,54.586h1.127c7.32,0,13.275-5.956,13.275-13.276v-9.162c0-7.32-5.955-13.276-13.275-13.276h-1.127  c-7.321,0-13.277,5.956-13.277,13.276v9.162C21.666,48.63,27.622,54.586,34.943,54.586z M25.666,32.147  c0-5.115,4.162-9.276,9.277-9.276h1.127c5.114,0,9.275,4.161,9.275,9.276v9.162c0,5.115-4.161,9.276-9.275,9.276h-1.127  c-5.115,0-9.277-4.161-9.277-9.276V32.147z M57.068,59.558H42.337c-1.104,0-2,0.896-2,2s0.896,2,2,2h14.731  c0.71,0,1.305,0.226,1.632,0.62c0.357,0.431,0.343,0.998,0.268,1.399c-0.228,1.213-2.094,3.057-2.991,3.942L38.91,86.584  c-0.869,0.869-2.036,1.369-3.286,1.407c-0.028,0.001-0.057,0.002-0.085,0.004h-0.033l-0.026,0.001  c-0.03-0.002-0.062-0.004-0.092-0.005c-1.249-0.038-2.415-0.538-3.284-1.406L15.358,69.84l-0.323-0.32  c-0.897-0.886-2.764-2.729-2.991-3.941c-0.075-0.401-0.089-0.97,0.27-1.401c0.326-0.394,0.92-0.619,1.63-0.619h14.279  c1.104,0,2-0.896,2-2s-0.896-2-2-2H13.943c-1.903,0-3.619,0.752-4.708,2.063c-1.053,1.269-1.452,2.935-1.123,4.692  c0.458,2.442,2.745,4.702,4.111,6.052l17.052,17.049c1.54,1.538,3.579,2.444,5.765,2.565c0.083,0.012,0.168,0.019,0.254,0.021h0.014  c0.051,0,0.156-0.003,0.192-0.004c0.042,0.002,0.184,0.008,0.219,0.004c0.085-0.002,0.169-0.009,0.251-0.021  c2.188-0.121,4.229-1.027,5.769-2.566l16.745-16.745l0.305-0.303c1.366-1.35,3.653-3.609,4.111-6.051  c0.33-1.757-0.068-3.423-1.121-4.691C60.689,60.311,58.973,59.558,57.068,59.558z M89.012,26.5h-12v-12c0-1.104-0.896-2-2-2  s-2,0.896-2,2v12h-12c-1.104,0-2,0.896-2,2s0.896,2,2,2h12v12c0,1.104,0.896,2,2,2s2-0.896,2-2v-12h12c1.104,0,2-0.896,2-2  S90.116,26.5,89.012,26.5z"/><text x="0" y="115" fill="#000000" font-size="5px" font-weight="bold" font-family="'Helvetica Neue', Helvetica, Arial-Unicode, Arial, Sans-serif">Created by Chunk Icons</text><text x="0" y="120" fill="#000000" font-size="5px" font-weight="bold" font-family="'Helvetica Neue', Helvetica, Arial-Unicode, Arial, Sans-serif">from the Noun Project</text></svg>